<svg xmlns="http://www.w3.org/2000/svg" width="64" height="64" xmlns:v="https://vecta.io/nano"><circle fill="#2a698e" cx="32.061" cy="32.061" r="28"/><g fill="#ccf6ff" transform="matrix(.875 0 0 .875 4.061432 4.061432)"><path d="M38.326 39.177c.275-.533 1.854-9.649 2.08-12.004.244-2.336-1.03-1.901-2.202-1.507-2.875.971-11.968 4.907-14.457 6.206-.612.254-.877.685-.431 1.059.384.316 1.789.751 2.921.971.966.292 1.716.012 2.409-.379 1.663-.986 6.621-4.124 6.889-4.299s.559.15.41.307-3.661 3.306-4.814 4.73c-.611.783-.592 1.201.035 1.695 1.408 1.103 5.168 3.62 5.728 3.772.714.194 1.132.033 1.433-.551z"/><g stroke="#ccf6ff" stroke-width=".528"><path d="M25.631 15.093c-7.251-1.321-12.985.062-15.27 4.019-1.705 2.953-1.218 6.869 1.182 11.055.129.237.376.385.645.388s.519-.141.653-.375.13-.522-.009-.753c-2.162-3.77-2.582-7.15-1.184-9.571 1.898-3.288 7.012-4.521 13.715-3.3.401.067.781-.201.854-.6s-.189-.784-.587-.863zM15.314 35.255c2.932 3.222 6.741 6.244 11.085 8.752 10.519 6.073 21.717 7.696 27.235 3.933.225-.148.352-.405.334-.673s-.18-.505-.423-.621a.74.74 0 0 0-.748.065c-4.939 3.368-15.576 1.826-25.654-3.992-4.214-2.433-7.903-5.36-10.729-8.465a.74.74 0 0 0-.709-.228c-.26.057-.471.248-.551.502s-.019.531.161.728zm36.561-.905C56.623 28.741 58.28 23.1 56 19.15c-1.678-2.906-5.225-4.441-9.939-4.502-.407.001-.737.328-.743.734s.317.742.723.753c4.24.055 7.296 1.377 8.671 3.759 1.894 3.281.415 8.311-3.973 13.495-.175.202-.228.483-.139.736s.308.437.571.484.532-.052.703-.258zM39.672 15.34c-4.293.92-8.863 2.718-13.251 5.252C15.563 26.861 8.48 36.106 9.463 42.809c.036.265.211.491.46.591s.532.058.741-.109.313-.434.271-.698c-.874-5.951 5.841-14.714 16.23-20.712 4.257-2.458 8.682-4.199 12.819-5.086.264-.052.479-.242.563-.497s.024-.536-.157-.734-.455-.284-.717-.223z"/><path d="M22.081 47.456c2.483 6.932 6.544 11.2 11.111 11.2 3.331 0 6.412-2.271 8.815-6.268.142-.228.149-.514.021-.75a.74.74 0 0 0-1.295-.016c-2.16 3.592-4.812 5.547-7.541 5.547-3.794 0-7.416-3.807-9.71-10.214-.086-.255-.302-.445-.567-.495a.74.74 0 0 0-.708.254.75.75 0 0 0-.125.742zM44.756 46.1c1.285-4.107 1.976-8.844 1.976-13.781C46.732 20 42.42 9.381 36.279 6.654c-.373-.156-.803.014-.967.384s-.003.803.364.975c5.477 2.432 9.569 12.51 9.569 24.306 0 4.79-.668 9.377-1.907 13.337a.74.74 0 0 0 .157.733c.181.198.454.284.716.224s.47-.256.547-.513zm14.004-.728a3.56 3.56 0 0 0-3.559-3.559 3.56 3.56 0 0 0-3.559 3.559 3.56 3.56 0 0 0 3.559 3.559 3.56 3.56 0 0 0 3.559-3.559zm-1.487 0a2.07 2.07 0 1 1-2.072-2.072 2.07 2.07 0 0 1 2.072 2.072zM11.13 48.93a3.56 3.56 0 0 0 3.559-3.559 3.56 3.56 0 0 0-3.559-3.559 3.56 3.56 0 0 0-3.559 3.559 3.56 3.56 0 0 0 3.559 3.559zm0-1.487a2.07 2.07 0 1 1 2.072-2.072 2.07 2.07 0 0 1-2.072 2.072z"/><path d="M33.192 10.284a3.56 3.56 0 0 0 3.559-3.559 3.56 3.56 0 0 0-3.559-3.559 3.56 3.56 0 0 0-3.559 3.559 3.56 3.56 0 0 0 3.559 3.559zm0-1.487a2.072 2.072 0 1 1 0-4.144 2.072 2.072 0 1 1 0 4.144z"/></g></g></svg>